<svg width="41" height="16" viewBox="0 0 41 16" fill="none" xmlns="http://www.w3.org/2000/svg">
<path d="M0 15.05H15V0.0499999H0V15.05ZM22.3614 10.7975C22.3614 9.8825 23.0964 9.155 24.0489 9.155C25.0014 9.155 25.7364 9.8825 25.7364 10.7975C25.7364 11.705 25.0014 12.4325 24.0489 12.4325C23.0964 12.4325 22.3614 11.705 22.3614 10.7975ZM27.2814 6.2C27.2814 4.6025 25.9314 3.32 24.0489 3.32C22.1664 3.32 20.8164 4.6025 20.8164 6.2C20.8164 7.0775 21.3414 7.8875 22.0539 8.255C20.9589 8.6825 20.3139 9.71 20.3139 10.8575C20.3139 12.7475 21.9414 14.18 24.0489 14.18C26.1564 14.18 27.7839 12.7475 27.7839 10.8575C27.7839 9.71 27.1389 8.6825 26.0439 8.255C26.7564 7.8875 27.2814 7.0775 27.2814 6.2ZM22.7814 6.26C22.7814 5.6 23.3289 5.0525 24.0489 5.0525C24.7689 5.0525 25.3164 5.6 25.3164 6.26C25.3164 6.905 24.7689 7.4825 24.0489 7.4825C23.3289 7.4825 22.7814 6.905 22.7814 6.26ZM29.5545 12.935C29.5545 13.64 30.0945 14.18 30.822 14.18C31.557 14.18 32.097 13.64 32.097 12.935C32.097 12.23 31.557 11.69 30.822 11.69C30.0945 11.69 29.5545 12.23 29.5545 12.935ZM34.3058 3.5V5.3375H38.6933L35.0708 14H37.3583L40.9958 5.1875V3.5H34.3058Z" fill="white"/>
</svg>
